<?xml version="1.0" encoding="UTF-8" standalone="no"?>
<!DOCTYPE svg PUBLIC "-//W3C//DTD SVG 1.1//EN"
 "http://www.w3.org/Graphics/SVG/1.1/DTD/svg11.dtd">
<!-- Generated by graphviz version 2.38.0 (20140413.2041)
 -->
<!-- Title: G Pages: 1 -->
<svg width="962pt" height="124pt"
 viewBox="0.00 0.00 962.46 123.98" xmlns="http://www.w3.org/2000/svg" xmlns:xlink="http://www.w3.org/1999/xlink">
<g id="graph0" class="graph" transform="scale(1 1) rotate(0) translate(7.992 115.992)">
<title>G</title>
<polygon fill="#000000" stroke="none" points="-7.992,7.992 -7.992,-115.992 954.465,-115.992 954.465,7.992 -7.992,7.992"/>
<!-- src/index -->
<g id="node1" class="node"><title>src/index</title>
<ellipse fill="none" stroke="#c6c5fe" cx="468.137" cy="-90" rx="48.1917" ry="18"/>
<text text-anchor="middle" x="468.137" y="-86.3" font-family="Arial" font-size="14.00" fill="#c6c5fe">src/index</text>
</g>
<!-- node_modules/fun&#45;array/src/index -->
<g id="node2" class="node"><title>node_modules/fun&#45;array/src/index</title>
<ellipse fill="none" stroke="#cfffac" cx="150.137" cy="-18" rx="150.273" ry="18"/>
<text text-anchor="middle" x="150.137" y="-14.3" font-family="Arial" font-size="14.00" fill="#cfffac">node_modules/fun&#45;array/src/index</text>
</g>
<!-- src/index&#45;&gt;node_modules/fun&#45;array/src/index -->
<g id="edge1" class="edge"><title>src/index&#45;&gt;node_modules/fun&#45;array/src/index</title>
<path fill="none" stroke="#757575" d="M427.862,-80.1345C377.89,-69.1344 291.567,-50.1325 228.394,-36.2264"/>
<polygon fill="#757575" stroke="#757575" points="228.981,-32.772 218.462,-34.0403 227.476,-39.6083 228.981,-32.772"/>
</g>
<!-- node_modules/fun&#45;curry/src/index -->
<g id="node3" class="node"><title>node_modules/fun&#45;curry/src/index</title>
<ellipse fill="none" stroke="#cfffac" cx="468.137" cy="-18" rx="150.273" ry="18"/>
<text text-anchor="middle" x="468.137" y="-14.3" font-family="Arial" font-size="14.00" fill="#cfffac">node_modules/fun&#45;curry/src/index</text>
</g>
<!-- src/index&#45;&gt;node_modules/fun&#45;curry/src/index -->
<g id="edge2" class="edge"><title>src/index&#45;&gt;node_modules/fun&#45;curry/src/index</title>
<path fill="none" stroke="#757575" d="M468.137,-71.6966C468.137,-63.9827 468.137,-54.7125 468.137,-46.1124"/>
<polygon fill="#757575" stroke="#757575" points="471.637,-46.1043 468.137,-36.1043 464.637,-46.1044 471.637,-46.1043"/>
</g>
<!-- node_modules/fun&#45;vector/src/index -->
<g id="node4" class="node"><title>node_modules/fun&#45;vector/src/index</title>
<ellipse fill="none" stroke="#cfffac" cx="791.137" cy="-18" rx="155.173" ry="18"/>
<text text-anchor="middle" x="791.137" y="-14.3" font-family="Arial" font-size="14.00" fill="#cfffac">node_modules/fun&#45;vector/src/index</text>
</g>
<!-- src/index&#45;&gt;node_modules/fun&#45;vector/src/index -->
<g id="edge3" class="edge"><title>src/index&#45;&gt;node_modules/fun&#45;vector/src/index</title>
<path fill="none" stroke="#757575" d="M508.718,-80.2053C559.299,-69.2434 646.909,-50.2568 711.171,-36.3301"/>
<polygon fill="#757575" stroke="#757575" points="712.243,-39.6791 721.275,-34.1404 710.76,-32.8379 712.243,-39.6791"/>
</g>
</g>
</svg>
