<?xml version="1.0" encoding="UTF-8" standalone="no"?>
<!DOCTYPE svg PUBLIC "-//W3C//DTD SVG 1.1//EN"
 "http://www.w3.org/Graphics/SVG/1.1/DTD/svg11.dtd">
<!-- Generated by graphviz version 2.38.0 (20140413.2041)
 -->
<!-- Title: G Pages: 1 -->
<svg width="1007pt" height="124pt"
 viewBox="0.00 0.00 1007.41 123.98" xmlns="http://www.w3.org/2000/svg" xmlns:xlink="http://www.w3.org/1999/xlink">
<g id="graph0" class="graph" transform="scale(1 1) rotate(0) translate(7.992 115.992)">
<title>G</title>
<polygon fill="#000000" stroke="none" points="-7.992,7.992 -7.992,-115.992 999.414,-115.992 999.414,7.992 -7.992,7.992"/>
<!-- index -->
<g id="node1" class="node"><title>index</title>
<ellipse fill="none" stroke="#c6c5fe" cx="490.286" cy="-90" rx="32.4942" ry="18"/>
<text text-anchor="middle" x="490.286" y="-86.3" font-family="Arial" font-size="14.00" fill="#c6c5fe">index</text>
</g>
<!-- ../node_modules/fun&#45;array/src/index -->
<g id="node2" class="node"><title>../node_modules/fun&#45;array/src/index</title>
<ellipse fill="none" stroke="#cfffac" cx="157.286" cy="-18" rx="157.072" ry="18"/>
<text text-anchor="middle" x="157.286" y="-14.3" font-family="Arial" font-size="14.00" fill="#cfffac">../node_modules/fun&#45;array/src/index</text>
</g>
<!-- index&#45;&gt;../node_modules/fun&#45;array/src/index -->
<g id="edge1" class="edge"><title>index&#45;&gt;../node_modules/fun&#45;array/src/index</title>
<path fill="none" stroke="#757575" d="M460.441,-82.7264C411.042,-72.3421 310.618,-51.2319 238.891,-36.1542"/>
<polygon fill="#757575" stroke="#757575" points="239.475,-32.7006 228.969,-34.0685 238.035,-39.5508 239.475,-32.7006"/>
</g>
<!-- ../node_modules/fun&#45;curry/src/index -->
<g id="node3" class="node"><title>../node_modules/fun&#45;curry/src/index</title>
<ellipse fill="none" stroke="#cfffac" cx="490.286" cy="-18" rx="157.072" ry="18"/>
<text text-anchor="middle" x="490.286" y="-14.3" font-family="Arial" font-size="14.00" fill="#cfffac">../node_modules/fun&#45;curry/src/index</text>
</g>
<!-- index&#45;&gt;../node_modules/fun&#45;curry/src/index -->
<g id="edge2" class="edge"><title>index&#45;&gt;../node_modules/fun&#45;curry/src/index</title>
<path fill="none" stroke="#757575" d="M490.286,-71.6966C490.286,-63.9827 490.286,-54.7125 490.286,-46.1124"/>
<polygon fill="#757575" stroke="#757575" points="493.786,-46.1043 490.286,-36.1043 486.786,-46.1044 493.786,-46.1043"/>
</g>
<!-- ../node_modules/fun&#45;vector/src/index -->
<g id="node4" class="node"><title>../node_modules/fun&#45;vector/src/index</title>
<ellipse fill="none" stroke="#cfffac" cx="828.286" cy="-18" rx="163.271" ry="18"/>
<text text-anchor="middle" x="828.286" y="-14.3" font-family="Arial" font-size="14.00" fill="#cfffac">../node_modules/fun&#45;vector/src/index</text>
</g>
<!-- index&#45;&gt;../node_modules/fun&#45;vector/src/index -->
<g id="edge3" class="edge"><title>index&#45;&gt;../node_modules/fun&#45;vector/src/index</title>
<path fill="none" stroke="#757575" d="M520.281,-82.788C570.2,-72.4498 672.033,-51.3601 744.946,-36.2597"/>
<polygon fill="#757575" stroke="#757575" points="745.952,-39.6258 755.035,-34.1704 744.533,-32.7712 745.952,-39.6258"/>
</g>
</g>
</svg>
