<?xml version="1.0" encoding="UTF-8" standalone="no"?>
<!DOCTYPE svg PUBLIC "-//W3C//DTD SVG 1.1//EN"
 "http://www.w3.org/Graphics/SVG/1.1/DTD/svg11.dtd">
<!-- Generated by graphviz version 2.38.0 (20140413.2041)
 -->
<!-- Title: G Pages: 1 -->
<svg width="2074pt" height="124pt"
 viewBox="0.00 0.00 2074.26 123.98" xmlns="http://www.w3.org/2000/svg" xmlns:xlink="http://www.w3.org/1999/xlink">
<g id="graph0" class="graph" transform="scale(1 1) rotate(0) translate(7.992 115.992)">
<title>G</title>
<polygon fill="#000000" stroke="none" points="-7.992,7.992 -7.992,-115.992 2066.26,-115.992 2066.26,7.992 -7.992,7.992"/>
<!-- index -->
<g id="node1" class="node"><title>index</title>
<ellipse fill="none" stroke="#c6c5fe" cx="1044.29" cy="-90" rx="32.4942" ry="18"/>
<text text-anchor="middle" x="1044.29" y="-86.3" font-family="Arial" font-size="14.00" fill="#c6c5fe">index</text>
</g>
<!-- ../node_modules/fun&#45;array/src/index -->
<g id="node2" class="node"><title>../node_modules/fun&#45;array/src/index</title>
<ellipse fill="none" stroke="#cfffac" cx="157.286" cy="-18" rx="157.072" ry="18"/>
<text text-anchor="middle" x="157.286" y="-14.3" font-family="Arial" font-size="14.00" fill="#cfffac">../node_modules/fun&#45;array/src/index</text>
</g>
<!-- index&#45;&gt;../node_modules/fun&#45;array/src/index -->
<g id="edge1" class="edge"><title>index&#45;&gt;../node_modules/fun&#45;array/src/index</title>
<path fill="none" stroke="#757575" d="M1011.92,-86.953C910.368,-80.4589 588.972,-59.3647 323.286,-36 308.866,-34.7319 293.75,-33.3111 278.761,-31.8456"/>
<polygon fill="#757575" stroke="#757575" points="278.708,-28.3235 268.413,-30.8252 278.021,-35.2898 278.708,-28.3235"/>
</g>
<!-- ../node_modules/fun&#45;function/src/index -->
<g id="node3" class="node"><title>../node_modules/fun&#45;function/src/index</title>
<ellipse fill="none" stroke="#cfffac" cx="502.286" cy="-18" rx="169.77" ry="18"/>
<text text-anchor="middle" x="502.286" y="-14.3" font-family="Arial" font-size="14.00" fill="#cfffac">../node_modules/fun&#45;function/src/index</text>
</g>
<!-- index&#45;&gt;../node_modules/fun&#45;function/src/index -->
<g id="edge2" class="edge"><title>index&#45;&gt;../node_modules/fun&#45;function/src/index</title>
<path fill="none" stroke="#757575" d="M1012.8,-84.9339C937.023,-75.1468 741.433,-49.8861 615.533,-33.626"/>
<polygon fill="#757575" stroke="#757575" points="615.828,-30.1351 605.462,-32.3253 614.931,-37.0774 615.828,-30.1351"/>
</g>
<!-- ../node_modules/fun&#45;predicate/src/index -->
<g id="node4" class="node"><title>../node_modules/fun&#45;predicate/src/index</title>
<ellipse fill="none" stroke="#cfffac" cx="866.286" cy="-18" rx="176.269" ry="18"/>
<text text-anchor="middle" x="866.286" y="-14.3" font-family="Arial" font-size="14.00" fill="#cfffac">../node_modules/fun&#45;predicate/src/index</text>
</g>
<!-- index&#45;&gt;../node_modules/fun&#45;predicate/src/index -->
<g id="edge3" class="edge"><title>index&#45;&gt;../node_modules/fun&#45;predicate/src/index</title>
<path fill="none" stroke="#757575" d="M1018.4,-78.8214C992.163,-68.5024 950.843,-52.2526 917.886,-39.292"/>
<polygon fill="#757575" stroke="#757575" points="918.98,-35.9615 908.393,-35.5589 916.418,-42.4759 918.98,-35.9615"/>
</g>
<!-- ../node_modules/fun&#45;scalar/src/index -->
<g id="node5" class="node"><title>../node_modules/fun&#45;scalar/src/index</title>
<ellipse fill="none" stroke="#cfffac" cx="1222.29" cy="-18" rx="161.671" ry="18"/>
<text text-anchor="middle" x="1222.29" y="-14.3" font-family="Arial" font-size="14.00" fill="#cfffac">../node_modules/fun&#45;scalar/src/index</text>
</g>
<!-- index&#45;&gt;../node_modules/fun&#45;scalar/src/index -->
<g id="edge4" class="edge"><title>index&#45;&gt;../node_modules/fun&#45;scalar/src/index</title>
<path fill="none" stroke="#757575" d="M1070.17,-78.8214C1096.5,-68.4678 1138.01,-52.1439 1171.02,-39.1621"/>
<polygon fill="#757575" stroke="#757575" points="1172.5,-42.3413 1180.52,-35.4243 1169.93,-35.827 1172.5,-42.3413"/>
</g>
<!-- ../node_modules/fun&#45;vector/src/index -->
<g id="node6" class="node"><title>../node_modules/fun&#45;vector/src/index</title>
<ellipse fill="none" stroke="#cfffac" cx="1565.29" cy="-18" rx="163.271" ry="18"/>
<text text-anchor="middle" x="1565.29" y="-14.3" font-family="Arial" font-size="14.00" fill="#cfffac">../node_modules/fun&#45;vector/src/index</text>
</g>
<!-- index&#45;&gt;../node_modules/fun&#45;vector/src/index -->
<g id="edge5" class="edge"><title>index&#45;&gt;../node_modules/fun&#45;vector/src/index</title>
<path fill="none" stroke="#757575" d="M1075.7,-84.7788C1149.31,-74.8887 1335.8,-49.8331 1456.2,-33.6571"/>
<polygon fill="#757575" stroke="#757575" points="1456.74,-37.115 1466.19,-32.3145 1455.81,-30.1773 1456.74,-37.115"/>
</g>
<!-- ../node_modules/guarded/src/index -->
<g id="node7" class="node"><title>../node_modules/guarded/src/index</title>
<ellipse fill="none" stroke="#cfffac" cx="1902.29" cy="-18" rx="155.972" ry="18"/>
<text text-anchor="middle" x="1902.29" y="-14.3" font-family="Arial" font-size="14.00" fill="#cfffac">../node_modules/guarded/src/index</text>
</g>
<!-- index&#45;&gt;../node_modules/guarded/src/index -->
<g id="edge6" class="edge"><title>index&#45;&gt;../node_modules/guarded/src/index</title>
<path fill="none" stroke="#757575" d="M1076.43,-86.8438C1175.18,-80.1561 1482.8,-58.8371 1737.29,-36 1751.62,-34.7138 1766.64,-33.2821 1781.54,-31.8106"/>
<polygon fill="#757575" stroke="#757575" points="1782.22,-35.2602 1791.83,-30.7868 1781.53,-28.2946 1782.22,-35.2602"/>
</g>
</g>
</svg>
